<mxfile host="22246be4-ec22-4603-9edd-821e69ef1786" modified="2020-09-21T02:57:27.935Z" agent="5.0 (Windows NT 10.0; Win64; x64) AppleWebKit/537.36 (KHTML, like Gecko) Code/1.49.1 Chrome/83.0.4103.122 Electron/9.2.1 Safari/537.36" etag="gKvLg-xT1KA3qSvbJ7vD" version="13.1.3">
    <diagram id="6hGFLwfOUW9BJ-s0fimq" name="Page-1">
        <mxGraphModel dx="1858" dy="577" grid="1" gridSize="10" guides="1" tooltips="1" connect="1" arrows="1" fold="1" page="1" pageScale="1" pageWidth="827" pageHeight="1169" math="0" shadow="0">
            <root>
                <mxCell id="0"/>
                <mxCell id="1" parent="0"/>
                <mxCell id="2" value="INGENIRIA DE SOFTWARE" style="text;html=1;strokeColor=none;fillColor=none;align=center;verticalAlign=middle;whiteSpace=wrap;rounded=0;" vertex="1" parent="1">
                    <mxGeometry x="320" y="20" width="220" height="20" as="geometry"/>
                </mxCell>
                <mxCell id="3" value="" style="endArrow=none;html=1;" edge="1" parent="1">
                    <mxGeometry width="50" height="50" relative="1" as="geometry">
                        <mxPoint x="80" y="40" as="sourcePoint"/>
                        <mxPoint x="740" y="40" as="targetPoint"/>
                        <Array as="points">
                            <mxPoint x="430" y="40"/>
                        </Array>
                    </mxGeometry>
                </mxCell>
                <mxCell id="4" value="" style="endArrow=none;html=1;" edge="1" parent="1">
                    <mxGeometry width="50" height="50" relative="1" as="geometry">
                        <mxPoint x="80" y="60" as="sourcePoint"/>
                        <mxPoint x="80" y="40" as="targetPoint"/>
                    </mxGeometry>
                </mxCell>
                <mxCell id="5" value="" style="endArrow=none;html=1;" edge="1" parent="1">
                    <mxGeometry width="50" height="50" relative="1" as="geometry">
                        <mxPoint x="740" y="60" as="sourcePoint"/>
                        <mxPoint x="740" y="40" as="targetPoint"/>
                    </mxGeometry>
                </mxCell>
                <mxCell id="6" value="" style="endArrow=none;html=1;" edge="1" parent="1">
                    <mxGeometry width="50" height="50" relative="1" as="geometry">
                        <mxPoint x="430" y="60" as="sourcePoint"/>
                        <mxPoint x="430" y="40" as="targetPoint"/>
                    </mxGeometry>
                </mxCell>
                <mxCell id="7" value="INTRODUCCION" style="rounded=0;whiteSpace=wrap;html=1;" vertex="1" parent="1">
                    <mxGeometry x="370" y="60" width="120" height="30" as="geometry"/>
                </mxCell>
                <mxCell id="8" value="MODELOS DE CICLO" style="rounded=0;whiteSpace=wrap;html=1;" vertex="1" parent="1">
                    <mxGeometry x="20" y="60" width="120" height="30" as="geometry"/>
                </mxCell>
                <mxCell id="9" value="PROCESOS DE DESAROLLO" style="rounded=0;whiteSpace=wrap;html=1;" vertex="1" parent="1">
                    <mxGeometry x="680" y="60" width="120" height="30" as="geometry"/>
                </mxCell>
                <mxCell id="10" value="" style="endArrow=none;html=1;" edge="1" parent="1">
                    <mxGeometry width="50" height="50" relative="1" as="geometry">
                        <mxPoint y="120" as="sourcePoint"/>
                        <mxPoint x="280" y="120" as="targetPoint"/>
                    </mxGeometry>
                </mxCell>
                <mxCell id="11" value="" style="endArrow=none;html=1;" edge="1" parent="1">
                    <mxGeometry width="50" height="50" relative="1" as="geometry">
                        <mxPoint y="160" as="sourcePoint"/>
                        <mxPoint y="120" as="targetPoint"/>
                    </mxGeometry>
                </mxCell>
                <mxCell id="12" value="Modelos de proceso de software tradicionales" style="rounded=0;whiteSpace=wrap;html=1;" vertex="1" parent="1">
                    <mxGeometry x="-60" y="160" width="120" height="40" as="geometry"/>
                </mxCell>
                <mxCell id="13" value="Modelos de proceso de software ágil" style="rounded=0;whiteSpace=wrap;html=1;" vertex="1" parent="1">
                    <mxGeometry x="90" y="160" width="120" height="40" as="geometry"/>
                </mxCell>
                <mxCell id="14" value="SweBok 3.0 (10 Áreas del conocimiento)" style="rounded=0;whiteSpace=wrap;html=1;" vertex="1" parent="1">
                    <mxGeometry x="240" y="160" width="120" height="40" as="geometry"/>
                </mxCell>
                <mxCell id="15" value="" style="endArrow=none;html=1;exitX=0.335;exitY=-0.01;exitDx=0;exitDy=0;exitPerimeter=0;" edge="1" parent="1" source="14">
                    <mxGeometry width="50" height="50" relative="1" as="geometry">
                        <mxPoint x="280" y="150" as="sourcePoint"/>
                        <mxPoint x="280" y="120" as="targetPoint"/>
                    </mxGeometry>
                </mxCell>
                <mxCell id="16" value="" style="endArrow=none;html=1;exitX=0.5;exitY=0;exitDx=0;exitDy=0;" edge="1" parent="1" source="13">
                    <mxGeometry width="50" height="50" relative="1" as="geometry">
                        <mxPoint x="150" y="320" as="sourcePoint"/>
                        <mxPoint x="150" y="120" as="targetPoint"/>
                    </mxGeometry>
                </mxCell>
                <mxCell id="17" value="" style="endArrow=none;html=1;entryX=0.5;entryY=1;entryDx=0;entryDy=0;exitX=0.25;exitY=0;exitDx=0;exitDy=0;" edge="1" parent="1" source="21" target="12">
                    <mxGeometry width="50" height="50" relative="1" as="geometry">
                        <mxPoint y="220" as="sourcePoint"/>
                        <mxPoint x="200" y="270" as="targetPoint"/>
                    </mxGeometry>
                </mxCell>
                <mxCell id="18" value="" style="endArrow=none;html=1;" edge="1" parent="1">
                    <mxGeometry width="50" height="50" relative="1" as="geometry">
                        <mxPoint x="-100" y="220" as="sourcePoint"/>
                        <mxPoint y="220" as="targetPoint"/>
                    </mxGeometry>
                </mxCell>
                <mxCell id="20" value="Prescriptivos" style="rounded=0;whiteSpace=wrap;html=1;" vertex="1" parent="1">
                    <mxGeometry x="-160" y="240" width="120" height="40" as="geometry"/>
                </mxCell>
                <mxCell id="21" value="Especializados" style="rounded=0;whiteSpace=wrap;html=1;" vertex="1" parent="1">
                    <mxGeometry x="-30" y="240" width="120" height="40" as="geometry"/>
                </mxCell>
                <mxCell id="22" value="" style="endArrow=none;html=1;" edge="1" parent="1" source="20">
                    <mxGeometry width="50" height="50" relative="1" as="geometry">
                        <mxPoint x="150" y="320" as="sourcePoint"/>
                        <mxPoint x="-100" y="220" as="targetPoint"/>
                    </mxGeometry>
                </mxCell>
                <mxCell id="24" value="" style="endArrow=none;html=1;entryX=0.5;entryY=1;entryDx=0;entryDy=0;" edge="1" parent="1" target="13">
                    <mxGeometry width="50" height="50" relative="1" as="geometry">
                        <mxPoint x="150" y="300" as="sourcePoint"/>
                        <mxPoint x="200" y="270" as="targetPoint"/>
                    </mxGeometry>
                </mxCell>
                <mxCell id="25" value="" style="endArrow=none;html=1;" edge="1" parent="1">
                    <mxGeometry width="50" height="50" relative="1" as="geometry">
                        <mxPoint x="80" y="300" as="sourcePoint"/>
                        <mxPoint x="150" y="300" as="targetPoint"/>
                    </mxGeometry>
                </mxCell>
                <mxCell id="26" value="Desarrollo dinámico" style="rounded=0;whiteSpace=wrap;html=1;" vertex="1" parent="1">
                    <mxGeometry x="90" y="320" width="120" height="40" as="geometry"/>
                </mxCell>
                <mxCell id="27" value="Programación extrema" style="rounded=0;whiteSpace=wrap;html=1;" vertex="1" parent="1">
                    <mxGeometry x="90" y="370" width="120" height="40" as="geometry"/>
                </mxCell>
                <mxCell id="28" value="" style="endArrow=none;html=1;" edge="1" parent="1">
                    <mxGeometry width="50" height="50" relative="1" as="geometry">
                        <mxPoint x="80" y="440" as="sourcePoint"/>
                        <mxPoint x="80" y="300" as="targetPoint"/>
                    </mxGeometry>
                </mxCell>
                <mxCell id="29" value="Scrum" style="rounded=0;whiteSpace=wrap;html=1;" vertex="1" parent="1">
                    <mxGeometry x="90" y="420" width="120" height="40" as="geometry"/>
                </mxCell>
                <mxCell id="30" value="" style="endArrow=none;html=1;entryX=0;entryY=0.5;entryDx=0;entryDy=0;" edge="1" parent="1" target="26">
                    <mxGeometry width="50" height="50" relative="1" as="geometry">
                        <mxPoint x="80" y="340" as="sourcePoint"/>
                        <mxPoint x="200" y="270" as="targetPoint"/>
                    </mxGeometry>
                </mxCell>
                <mxCell id="31" value="" style="endArrow=none;html=1;entryX=0;entryY=0.75;entryDx=0;entryDy=0;" edge="1" parent="1" target="27">
                    <mxGeometry width="50" height="50" relative="1" as="geometry">
                        <mxPoint x="80" y="400" as="sourcePoint"/>
                        <mxPoint x="200" y="270" as="targetPoint"/>
                    </mxGeometry>
                </mxCell>
                <mxCell id="32" value="" style="endArrow=none;html=1;entryX=0;entryY=0.5;entryDx=0;entryDy=0;" edge="1" parent="1" target="29">
                    <mxGeometry width="50" height="50" relative="1" as="geometry">
                        <mxPoint x="80" y="440" as="sourcePoint"/>
                        <mxPoint x="200" y="270" as="targetPoint"/>
                    </mxGeometry>
                </mxCell>
                <mxCell id="33" value="" style="endArrow=none;html=1;entryX=0.5;entryY=1;entryDx=0;entryDy=0;" edge="1" parent="1" target="14">
                    <mxGeometry width="50" height="50" relative="1" as="geometry">
                        <mxPoint x="300" y="220" as="sourcePoint"/>
                        <mxPoint x="200" y="270" as="targetPoint"/>
                    </mxGeometry>
                </mxCell>
                <mxCell id="34" value="Requisitos, Diseño, Desarrollo, Pruebas, Mantenimiento, Gestión deconfiguración, gestión de software, proceso de ingeniería, herramientas ymétodos de ingeniería, calidad del software" style="rounded=0;whiteSpace=wrap;html=1;" vertex="1" parent="1">
                    <mxGeometry x="240" y="220" width="120" height="170" as="geometry"/>
                </mxCell>
                <mxCell id="35" value="" style="endArrow=none;html=1;entryX=0.5;entryY=1;entryDx=0;entryDy=0;" edge="1" parent="1" target="7">
                    <mxGeometry width="50" height="50" relative="1" as="geometry">
                        <mxPoint x="430" y="120" as="sourcePoint"/>
                        <mxPoint x="370" y="270" as="targetPoint"/>
                    </mxGeometry>
                </mxCell>
                <mxCell id="36" value="" style="endArrow=none;html=1;" edge="1" parent="1">
                    <mxGeometry width="50" height="50" relative="1" as="geometry">
                        <mxPoint x="430" y="120" as="sourcePoint"/>
                        <mxPoint x="570" y="120" as="targetPoint"/>
                    </mxGeometry>
                </mxCell>
                <mxCell id="37" value="Industria 4.0" style="rounded=0;whiteSpace=wrap;html=1;" vertex="1" parent="1">
                    <mxGeometry x="500" y="130" width="120" height="30" as="geometry"/>
                </mxCell>
                <mxCell id="38" value="" style="endArrow=none;html=1;entryX=0.5;entryY=1;entryDx=0;entryDy=0;" edge="1" parent="1" target="8">
                    <mxGeometry width="50" height="50" relative="1" as="geometry">
                        <mxPoint x="80" y="120" as="sourcePoint"/>
                        <mxPoint x="260" y="170" as="targetPoint"/>
                    </mxGeometry>
                </mxCell>
                <mxCell id="39" value="" style="endArrow=none;html=1;exitX=0.568;exitY=0.027;exitDx=0;exitDy=0;exitPerimeter=0;" edge="1" parent="1" source="37">
                    <mxGeometry width="50" height="50" relative="1" as="geometry">
                        <mxPoint x="300" y="220" as="sourcePoint"/>
                        <mxPoint x="570" y="120" as="targetPoint"/>
                    </mxGeometry>
                </mxCell>
                <mxCell id="40" value="" style="endArrow=none;html=1;" edge="1" parent="1">
                    <mxGeometry width="50" height="50" relative="1" as="geometry">
                        <mxPoint x="430" y="180" as="sourcePoint"/>
                        <mxPoint x="680" y="180" as="targetPoint"/>
                    </mxGeometry>
                </mxCell>
                <mxCell id="41" value="" style="endArrow=none;html=1;entryX=0.5;entryY=1;entryDx=0;entryDy=0;" edge="1" parent="1" target="37">
                    <mxGeometry width="50" height="50" relative="1" as="geometry">
                        <mxPoint x="560" y="180" as="sourcePoint"/>
                        <mxPoint x="350" y="170" as="targetPoint"/>
                    </mxGeometry>
                </mxCell>
                <mxCell id="42" value="integrar en tus plantas de producción" style="rounded=0;whiteSpace=wrap;html=1;" vertex="1" parent="1">
                    <mxGeometry x="380" y="230" width="120" height="40" as="geometry"/>
                </mxCell>
                <mxCell id="44" value="Que es?" style="text;html=1;strokeColor=none;fillColor=none;align=center;verticalAlign=middle;whiteSpace=wrap;rounded=0;" vertex="1" parent="1">
                    <mxGeometry x="414" y="190" width="56" height="20" as="geometry"/>
                </mxCell>
                <mxCell id="45" value="" style="endArrow=none;html=1;exitX=0.5;exitY=0;exitDx=0;exitDy=0;" edge="1" parent="1" source="42">
                    <mxGeometry width="50" height="50" relative="1" as="geometry">
                        <mxPoint x="300" y="220" as="sourcePoint"/>
                        <mxPoint x="440" y="210" as="targetPoint"/>
                        <Array as="points">
                            <mxPoint x="442" y="220"/>
                        </Array>
                    </mxGeometry>
                </mxCell>
                <mxCell id="46" value="" style="endArrow=none;html=1;" edge="1" parent="1">
                    <mxGeometry width="50" height="50" relative="1" as="geometry">
                        <mxPoint x="392" y="280" as="sourcePoint"/>
                        <mxPoint x="460" y="280" as="targetPoint"/>
                    </mxGeometry>
                </mxCell>
                <mxCell id="48" value="Fabricación aditiva o impresión 3D" style="rounded=0;whiteSpace=wrap;html=1;" vertex="1" parent="1">
                    <mxGeometry x="400" y="290" width="120" height="30" as="geometry"/>
                </mxCell>
                <mxCell id="49" value="Integración de procesos" style="rounded=0;whiteSpace=wrap;html=1;" vertex="1" parent="1">
                    <mxGeometry x="400" y="330" width="120" height="30" as="geometry"/>
                </mxCell>
                <UserObject label="Ciberseguridad" id="51">
                    <mxCell style="rounded=0;whiteSpace=wrap;html=1;" vertex="1" parent="1">
                        <mxGeometry x="400" y="370" width="120" height="30" as="geometry"/>
                    </mxCell>
                </UserObject>
                <mxCell id="52" value="Realidad aumentada" style="rounded=0;whiteSpace=wrap;html=1;" vertex="1" parent="1">
                    <mxGeometry x="400" y="410" width="120" height="30" as="geometry"/>
                </mxCell>
                <mxCell id="53" value="Cloud Computing" style="rounded=0;whiteSpace=wrap;html=1;" vertex="1" parent="1">
                    <mxGeometry x="400" y="450" width="120" height="30" as="geometry"/>
                </mxCell>
                <mxCell id="55" value="Robótica" style="rounded=0;whiteSpace=wrap;html=1;" vertex="1" parent="1">
                    <mxGeometry x="400" y="490" width="120" height="30" as="geometry"/>
                </mxCell>
                <mxCell id="56" value="Internet de las cosas" style="rounded=0;whiteSpace=wrap;html=1;" vertex="1" parent="1">
                    <mxGeometry x="400" y="530" width="120" height="30" as="geometry"/>
                </mxCell>
                <mxCell id="57" value="" style="endArrow=none;html=1;" edge="1" parent="1">
                    <mxGeometry width="50" height="50" relative="1" as="geometry">
                        <mxPoint x="390" y="590" as="sourcePoint"/>
                        <mxPoint x="390" y="280" as="targetPoint"/>
                    </mxGeometry>
                </mxCell>
                <mxCell id="58" value="Big data y análisis de datos" style="rounded=0;whiteSpace=wrap;html=1;" vertex="1" parent="1">
                    <mxGeometry x="400" y="569.5" width="120" height="30" as="geometry"/>
                </mxCell>
                <mxCell id="59" value="" style="endArrow=none;html=1;entryX=0;entryY=0.75;entryDx=0;entryDy=0;" edge="1" parent="1" target="58">
                    <mxGeometry width="50" height="50" relative="1" as="geometry">
                        <mxPoint x="390" y="590" as="sourcePoint"/>
                        <mxPoint x="350" y="370" as="targetPoint"/>
                    </mxGeometry>
                </mxCell>
                <mxCell id="60" value="Automatización industrial" style="rounded=0;whiteSpace=wrap;html=1;" vertex="1" parent="1">
                    <mxGeometry x="620" y="190" width="120" height="30" as="geometry"/>
                </mxCell>
                <mxCell id="61" value="" style="endArrow=none;html=1;" edge="1" parent="1">
                    <mxGeometry width="50" height="50" relative="1" as="geometry">
                        <mxPoint x="620" y="240" as="sourcePoint"/>
                        <mxPoint x="680" y="240" as="targetPoint"/>
                    </mxGeometry>
                </mxCell>
                <mxCell id="62" value="" style="endArrow=none;html=1;" edge="1" parent="1">
                    <mxGeometry width="50" height="50" relative="1" as="geometry">
                        <mxPoint x="620" y="440" as="sourcePoint"/>
                        <mxPoint x="620" y="240" as="targetPoint"/>
                    </mxGeometry>
                </mxCell>
                <mxCell id="63" value="1.Nivel de campo o instrumentación." style="rounded=0;whiteSpace=wrap;html=1;" vertex="1" parent="1">
                    <mxGeometry x="630" y="250" width="120" height="30" as="geometry"/>
                </mxCell>
                <mxCell id="64" value="2.Nivel de control o de campo." style="rounded=0;whiteSpace=wrap;html=1;" vertex="1" parent="1">
                    <mxGeometry x="630" y="290" width="120" height="30" as="geometry"/>
                </mxCell>
                <mxCell id="65" value="3.Nivel de supervisión o de planta." style="rounded=0;whiteSpace=wrap;html=1;" vertex="1" parent="1">
                    <mxGeometry x="630" y="330" width="120" height="30" as="geometry"/>
                </mxCell>
                <mxCell id="66" value="4. Nivel de planificación." style="rounded=0;whiteSpace=wrap;html=1;" vertex="1" parent="1">
                    <mxGeometry x="630" y="370" width="120" height="30" as="geometry"/>
                </mxCell>
                <mxCell id="67" value="5.Nivel de gestión o de fábrica." style="rounded=0;whiteSpace=wrap;html=1;" vertex="1" parent="1">
                    <mxGeometry x="630" y="410" width="120" height="30" as="geometry"/>
                </mxCell>
                <mxCell id="68" value="" style="endArrow=none;html=1;entryX=0.5;entryY=1;entryDx=0;entryDy=0;" edge="1" parent="1" target="9">
                    <mxGeometry width="50" height="50" relative="1" as="geometry">
                        <mxPoint x="740" y="120" as="sourcePoint"/>
                        <mxPoint x="450" y="270" as="targetPoint"/>
                    </mxGeometry>
                </mxCell>
                <mxCell id="69" value="" style="endArrow=none;html=1;" edge="1" parent="1">
                    <mxGeometry width="50" height="50" relative="1" as="geometry">
                        <mxPoint x="740" y="120" as="sourcePoint"/>
                        <mxPoint x="1000" y="120" as="targetPoint"/>
                    </mxGeometry>
                </mxCell>
                <mxCell id="70" value="Un proceso de software es una serie de actividades relacionadas que conduce a la elaboración de un producto de software." style="rounded=0;whiteSpace=wrap;html=1;" vertex="1" parent="1">
                    <mxGeometry x="850" y="130" width="330" height="40" as="geometry"/>
                </mxCell>
                <mxCell id="71" value="" style="endArrow=none;html=1;entryX=0.5;entryY=1;entryDx=0;entryDy=0;" edge="1" parent="1" target="70">
                    <mxGeometry width="50" height="50" relative="1" as="geometry">
                        <mxPoint x="1015" y="190" as="sourcePoint"/>
                        <mxPoint x="830" y="270" as="targetPoint"/>
                    </mxGeometry>
                </mxCell>
                <mxCell id="72" value="Tipos de Modelos" style="rounded=0;whiteSpace=wrap;html=1;" vertex="1" parent="1">
                    <mxGeometry x="940" y="190" width="150" height="30" as="geometry"/>
                </mxCell>
                <mxCell id="74" value="" style="endArrow=none;html=1;" edge="1" parent="1">
                    <mxGeometry width="50" height="50" relative="1" as="geometry">
                        <mxPoint x="910" y="230" as="sourcePoint"/>
                        <mxPoint x="1130" y="230" as="targetPoint"/>
                    </mxGeometry>
                </mxCell>
                <mxCell id="78" value="Prescriptivo" style="rounded=0;whiteSpace=wrap;html=1;" vertex="1" parent="1">
                    <mxGeometry x="850" y="240" width="120" height="30" as="geometry"/>
                </mxCell>
                <mxCell id="79" value="De proceso especializado" style="rounded=0;whiteSpace=wrap;html=1;" vertex="1" parent="1">
                    <mxGeometry x="1070" y="240" width="150" height="30" as="geometry"/>
                </mxCell>
                <mxCell id="80" value="" style="endArrow=none;html=1;" edge="1" parent="1">
                    <mxGeometry width="50" height="50" relative="1" as="geometry">
                        <mxPoint x="860" y="280" as="sourcePoint"/>
                        <mxPoint x="910" y="280" as="targetPoint"/>
                    </mxGeometry>
                </mxCell>
                <mxCell id="81" value="" style="endArrow=none;html=1;" edge="1" parent="1">
                    <mxGeometry width="50" height="50" relative="1" as="geometry">
                        <mxPoint x="860" y="450" as="sourcePoint"/>
                        <mxPoint x="860" y="280" as="targetPoint"/>
                    </mxGeometry>
                </mxCell>
                <mxCell id="82" value="Modelo en Cascada" style="rounded=0;whiteSpace=wrap;html=1;" vertex="1" parent="1">
                    <mxGeometry x="870" y="290" width="120" height="30" as="geometry"/>
                </mxCell>
                <mxCell id="83" value="Modelo de desarrollo incremental" style="rounded=0;whiteSpace=wrap;html=1;" vertex="1" parent="1">
                    <mxGeometry x="870" y="330" width="120" height="30" as="geometry"/>
                </mxCell>
                <mxCell id="84" value="Modelo de proceso evolutivo" style="rounded=0;whiteSpace=wrap;html=1;" vertex="1" parent="1">
                    <mxGeometry x="870" y="375" width="120" height="30" as="geometry"/>
                </mxCell>
                <mxCell id="85" value="Modelo concurrentes" style="rounded=0;whiteSpace=wrap;html=1;" vertex="1" parent="1">
                    <mxGeometry x="870" y="420" width="120" height="30" as="geometry"/>
                </mxCell>
                <mxCell id="86" value="Basado en componentes" style="rounded=0;whiteSpace=wrap;html=1;" vertex="1" parent="1">
                    <mxGeometry x="1080" y="290" width="120" height="30" as="geometry"/>
                </mxCell>
                <mxCell id="87" value="Proceso unificado" style="rounded=0;whiteSpace=wrap;html=1;" vertex="1" parent="1">
                    <mxGeometry x="1080" y="330" width="120" height="30" as="geometry"/>
                </mxCell>
                <mxCell id="88" value="Proceso personal del software PPS" style="rounded=0;whiteSpace=wrap;html=1;" vertex="1" parent="1">
                    <mxGeometry x="1080" y="370" width="120" height="30" as="geometry"/>
                </mxCell>
                <mxCell id="89" value="Proceso personal del software PPS" style="rounded=0;whiteSpace=wrap;html=1;" vertex="1" parent="1">
                    <mxGeometry x="1080" y="410" width="120" height="30" as="geometry"/>
                </mxCell>
                <mxCell id="90" value="" style="endArrow=none;html=1;" edge="1" parent="1">
                    <mxGeometry width="50" height="50" relative="1" as="geometry">
                        <mxPoint x="1070" y="280" as="sourcePoint"/>
                        <mxPoint x="1130" y="280" as="targetPoint"/>
                    </mxGeometry>
                </mxCell>
                <mxCell id="91" value="" style="endArrow=none;html=1;" edge="1" parent="1">
                    <mxGeometry width="50" height="50" relative="1" as="geometry">
                        <mxPoint x="1070" y="440" as="sourcePoint"/>
                        <mxPoint x="1070" y="280" as="targetPoint"/>
                    </mxGeometry>
                </mxCell>
                <mxCell id="93" style="edgeStyle=orthogonalEdgeStyle;rounded=0;orthogonalLoop=1;jettySize=auto;html=1;exitX=0.5;exitY=1;exitDx=0;exitDy=0;" edge="1" parent="1" source="89" target="89">
                    <mxGeometry relative="1" as="geometry"/>
                </mxCell>
            </root>
        </mxGraphModel>
    </diagram>
</mxfile>